<?xml version="1.0" standalone="no"?>
<!DOCTYPE svg PUBLIC "-//W3C//DTD SVG 20010904//EN" "http://www.w3.org/TR/2001/REC-SVG-20010904/DTD/svg10.dtd">
<svg version="1.0" xmlns="http://www.w3.org/2000/svg" width="498.000000pt" height="619.000000pt"
  viewBox="0 0 498.000000 619.000000" preserveAspectRatio="xMidYMid meet">
  <metadata>
    Created by potrace 1.16, written by Peter Selinger 2001-2019
  </metadata>
  <g transform="translate(0.000000,619.000000) scale(0.100000,-0.100000)" fill="white" stroke="none">
    <path d="M2310 6059 c-459 -53 -868 -304 -1112 -684 -293 -455 -324 -1028 -82
-1507 321 -636 1037 -963 1727 -789 788 199 1277 985 1112 1785 -37 178 -127
387 -237 548 -81 120 -265 305 -383 384 -308 209 -674 303 -1025 263z m458
-263 c442 -111 783 -426 921 -855 46 -140 56 -212 56 -391 0 -179 -10 -251
-56 -391 -127 -393 -434 -701 -824 -827 -147 -48 -214 -57 -405 -57 -156 1
-187 4 -283 28 -243 61 -440 171 -612 342 -497 497 -501 1297 -10 1800 192
197 428 319 715 371 122 22 370 12 498 -20z" />
    <path d="M1108 2834 c-121 -82 -218 -166 -348 -300 -350 -362 -569 -804 -646
-1309 -16 -102 -19 -181 -19 -522 l0 -403 33 -32 32 -33 2299 -3 2298 -2 34
23 c18 12 39 34 46 47 16 31 18 631 3 795 -41 444 -203 862 -474 1225 -176
236 -542 560 -635 562 -71 2 -121 -46 -121 -119 0 -49 18 -74 88 -122 86 -59
239 -190 312 -267 261 -277 438 -590 530 -938 55 -209 62 -275 67 -634 l5
-332 -2142 0 -2142 0 5 338 c4 362 11 425 72 652 117 434 418 875 774 1134
129 93 161 127 161 169 0 53 -16 85 -52 107 -55 33 -88 26 -180 -36z" />
  </g>
</svg>