<?xml version="1.0" standalone="no"?>
<!DOCTYPE svg PUBLIC "-//W3C//DTD SVG 20010904//EN"
 "http://www.w3.org/TR/2001/REC-SVG-20010904/DTD/svg10.dtd">
<svg version="1.0" xmlns="http://www.w3.org/2000/svg"
 width="500.000000pt" height="500.000000pt" viewBox="0 0 500.000000 500.000000"
 preserveAspectRatio="xMidYMid meet">
<metadata>
Created by potrace 1.14, written by Peter Selinger 2001-2017
</metadata>
<g transform="translate(0.000000,500.000000) scale(0.100000,-0.100000)"
fill="#000000" stroke="none">
<path d="M0 2500 l0 -2500 2500 0 2500 0 0 2500 0 2500 -2500 0 -2500 0 0
-2500z m4110 1565 l0 -25 -320 0 -320 0 0 -40 0 -40 320 0 320 0 0 -25 0 -25
-320 0 -320 0 0 -40 0 -40 320 0 320 0 0 -30 0 -30 -317 -2 -318 -3 0 -35 0
-35 318 -3 317 -2 0 -25 0 -25 -282 -2 c-543 -5 -547 -5 -601 21 -26 13 -59
38 -74 57 l-26 35 -653 -2 -654 -1 0 -434 0 -434 580 0 580 0 0 -32 0 -33 21
33 c12 18 39 42 60 52 35 19 60 20 324 20 247 0 285 -2 285 -15 0 -13 -31 -15
-220 -15 l-220 0 0 -30 0 -30 220 0 c213 0 220 -1 220 -20 0 -19 -7 -20 -221
-20 l-220 0 3 -27 3 -28 218 3 c213 3 217 2 217 -18 0 -18 -6 -20 -77 -20 -43
0 -142 -3 -220 -7 -141 -6 -143 -6 -143 -30 l0 -23 220 0 c213 0 220 -1 220
-20 0 -20 -7 -20 -288 -20 -320 0 -333 2 -379 70 l-23 33 0 -32 0 -31 -580 0
-580 0 0 -560 0 -560 -150 0 -150 0 0 1240 0 1240 800 0 c633 0 800 -3 800
-12 1 -7 13 1 28 19 15 17 47 43 72 57 l45 26 423 0 422 0 0 -25z m-2972
-2885 c87 -39 107 -167 38 -236 -86 -86 -241 -52 -266 59 -31 138 96 237 228
177z m402 -8 c83 -61 77 -189 -12 -255 -34 -26 -120 -27 -166 -3 -70 36 -95
143 -52 214 42 68 165 91 230 44z m698 15 c19 -2 22 -8 22 -44 0 -49 -15 -57
-23 -13 -9 41 -50 67 -83 51 -40 -18 -27 -49 41 -103 65 -52 82 -80 71 -121
-9 -39 -47 -60 -104 -58 -121 4 -112 0 -112 59 0 28 5 52 10 52 6 0 10 -9 10
-21 0 -23 18 -60 34 -71 19 -13 63 -9 76 8 20 24 2 56 -60 106 -76 61 -85 112
-26 150 24 15 41 18 76 13 25 -4 55 -7 68 -8z m979 -2 c29 -12 38 -13 45 -3 4
8 8 -10 7 -42 l0 -55 -22 45 c-34 68 -99 74 -131 11 -18 -34 -22 -155 -6 -195
11 -29 42 -48 64 -40 24 9 22 89 -3 106 -16 11 -9 13 49 13 67 0 67 0 59 -23
-5 -13 -9 -39 -9 -57 0 -24 -4 -33 -13 -29 -7 2 -32 -2 -55 -10 -51 -18 -121
-9 -154 20 -76 69 -58 207 34 253 51 25 86 26 135 6z m-2378 -47 c-1 -53 -1
-53 -14 -23 -18 42 -49 67 -77 63 -21 -3 -23 -9 -26 -65 -2 -35 1 -63 6 -63
13 0 38 23 50 45 9 16 11 8 11 -45 0 -54 -2 -61 -11 -45 -31 55 -58 46 -58
-17 0 -60 6 -74 35 -81 11 -2 -18 -5 -65 -6 -62 0 -80 2 -67 10 15 9 17 26 17
134 0 108 -2 125 -17 134 -13 8 15 10 100 11 l117 0 -1 -52z m1055 38 c54 -22
76 -60 76 -127 0 -51 -4 -63 -31 -93 -38 -44 -79 -56 -187 -56 -76 0 -82 1
-68 16 23 23 23 235 0 258 -14 15 -7 16 81 16 59 0 108 -5 129 -14z m712 -17
c-3 -17 -6 -43 -7 -58 -1 -26 -1 -26 -11 4 -13 36 -46 75 -65 75 -10 0 -13
-27 -13 -122 0 -68 4 -128 8 -134 4 -7 16 -14 27 -17 11 -2 -23 -5 -75 -5 -52
0 -84 3 -70 7 25 7 25 8 28 139 2 107 0 132 -11 132 -18 0 -42 -27 -60 -70
l-15 -35 -1 58 -1 57 136 0 137 0 -7 -31z m269 -101 c27 -72 56 -137 63 -145
11 -11 0 -13 -65 -12 -43 1 -70 3 -60 6 19 5 19 21 -3 78 -8 21 -16 25 -49 25
-30 0 -43 -5 -51 -19 -15 -30 -12 -69 8 -80 13 -8 8 -10 -27 -11 -41 0 -43 1
-28 18 8 9 36 70 61 135 55 143 52 137 79 137 19 0 29 -18 72 -132z m714 108
c38 -34 22 -95 -30 -115 l-24 -9 28 -12 c19 -10 30 -25 38 -54 6 -23 18 -46
26 -53 14 -11 12 -14 -12 -23 -55 -21 -90 3 -100 68 -7 51 -20 72 -41 72 -23
0 -19 -116 4 -129 13 -8 -2 -10 -58 -10 -56 0 -71 2 -57 10 15 9 17 26 17 134
0 107 -2 125 -17 135 -13 8 11 10 93 8 94 -3 115 -6 133 -22z m306 -108 c27
-72 56 -137 63 -145 11 -11 0 -13 -65 -12 -43 1 -70 3 -60 6 19 5 19 21 -3 78
-8 21 -16 25 -49 25 -30 0 -43 -5 -51 -19 -15 -30 -12 -69 8 -80 13 -8 8 -10
-27 -11 -41 0 -43 1 -28 18 8 9 36 70 61 135 55 143 52 137 79 137 19 0 29
-18 72 -132z m265 85 c11 -27 29 -66 38 -87 l18 -40 33 87 33 87 56 0 c44 -1
53 -3 40 -11 -16 -9 -18 -26 -18 -134 0 -108 2 -125 18 -134 13 -8 -2 -10 -57
-11 -63 0 -72 2 -58 13 15 11 17 27 15 122 l-3 110 -44 -115 c-25 -63 -48
-119 -51 -123 -4 -4 -32 50 -63 120 l-57 128 0 -118 c0 -113 1 -118 23 -127
18 -7 15 -9 -21 -9 -43 -1 -43 -1 -28 21 12 17 16 49 16 135 0 96 -2 113 -17
122 -14 8 -3 10 44 11 l62 0 21 -47z"/>
<path d="M1022 1165 c-52 -65 -32 -241 29 -260 48 -16 85 66 76 169 -9 98 -63
145 -105 91z"/>
<path d="M1400 1158 c-41 -68 -23 -233 27 -252 45 -18 74 24 81 115 9 136 -57
220 -108 137z"/>
<path d="M1780 1050 c0 -141 3 -149 54 -136 33 8 51 58 50 142 0 91 -19 124
-69 124 l-35 0 0 -130z"/>
<path d="M2739 1065 l-17 -45 38 0 38 0 -17 45 c-9 25 -18 45 -21 45 -3 0 -12
-20 -21 -45z"/>
<path d="M3467 1174 c-4 -4 -7 -34 -7 -66 0 -50 3 -58 19 -58 30 0 42 25 39
77 -2 39 -7 49 -23 51 -12 2 -24 0 -28 -4z"/>
<path d="M3759 1065 l-17 -45 38 0 38 0 -17 45 c-9 25 -18 45 -21 45 -3 0 -12
-20 -21 -45z"/>
</g>
</svg>
